# xmcd CD database file
#
# Track frame offsets:
#	150
#	15258
#	31455
#	46447
#	70317
#	85862
#	105855
#	128132
#	157138
#	178351
#	195791
#	214869
#	231900
#	262330
#
# Disc length: 3763 seconds
#
# Revision: 0
# Processed by: cddbd v1.4PL0 Copyright (c) Steve Scherf et al.
# Submitted via: CDex 1.50
#
DISCID=bf0eb10e
DTITLE=The Will Derryberry Band - Demonstration
DYEAR=1900
DGENRE=Blues
TTITLE0=Day and Night
TTITLE1=Upstanding Man
TTITLE2=Funky Instrumental
TTITLE3=Don't Ever Leave Me
TTITLE4=Malted Milk
TTITLE5=If I'm Wrong
TTITLE6=Season Change
TTITLE7=It Hurts Me Too
TTITLE8=Talk To Your Daughter
TTITLE9=Climbing Higher Mountains
TTITLE10=Tell Me What Kind of Man Jesus Is
TTITLE11=I've Got A Feelin'
TTITLE12=Blackjack
TTITLE13=Glory
EXTD=
EXTT0=
EXTT1=
EXTT2=
EXTT3=
EXTT4=
EXTT5=
EXTT6=
EXTT7=
EXTT8=
EXTT9=
EXTT10=
EXTT11=
EXTT12=
EXTT13=
PLAYORDER=
